<mxfile host="app.diagrams.net" modified="2024-07-09T08:25:02.196Z" agent="Mozilla/5.0 (Macintosh; Intel Mac OS X 10_15_7) AppleWebKit/537.36 (KHTML, like Gecko) Chrome/126.0.0.0 Safari/537.36" etag="ipwL8ibKEkb0oyVjLvmp" version="24.6.4" type="github">
  <diagram name="第 1 页" id="Sl7Qwl_e1ZX8DYcozZXe">
    <mxGraphModel dx="1761" dy="595" grid="1" gridSize="10" guides="1" tooltips="1" connect="1" arrows="1" fold="1" page="1" pageScale="1" pageWidth="827" pageHeight="1169" math="0" shadow="0">
      <root>
        <mxCell id="0" />
        <mxCell id="1" parent="0" />
        <mxCell id="LknEf1gBUkoIw8FcQfvM-5" value="" style="edgeStyle=orthogonalEdgeStyle;rounded=0;orthogonalLoop=1;jettySize=auto;html=1;" edge="1" parent="1" source="LknEf1gBUkoIw8FcQfvM-1" target="LknEf1gBUkoIw8FcQfvM-4">
          <mxGeometry relative="1" as="geometry" />
        </mxCell>
        <mxCell id="LknEf1gBUkoIw8FcQfvM-1" value="品德成功论" style="rounded=0;whiteSpace=wrap;html=1;" vertex="1" parent="1">
          <mxGeometry x="200" y="440" width="80" height="40" as="geometry" />
        </mxCell>
        <mxCell id="LknEf1gBUkoIw8FcQfvM-6" value="体现" style="edgeStyle=orthogonalEdgeStyle;rounded=0;orthogonalLoop=1;jettySize=auto;html=1;" edge="1" parent="1" source="LknEf1gBUkoIw8FcQfvM-2" target="LknEf1gBUkoIw8FcQfvM-3">
          <mxGeometry relative="1" as="geometry" />
        </mxCell>
        <mxCell id="LknEf1gBUkoIw8FcQfvM-2" value="个人魅力论" style="rounded=0;whiteSpace=wrap;html=1;" vertex="1" parent="1">
          <mxGeometry x="200" y="760" width="80" height="40" as="geometry" />
        </mxCell>
        <mxCell id="LknEf1gBUkoIw8FcQfvM-10" value="强调" style="edgeStyle=orthogonalEdgeStyle;rounded=0;orthogonalLoop=1;jettySize=auto;html=1;" edge="1" parent="1" source="LknEf1gBUkoIw8FcQfvM-3" target="LknEf1gBUkoIw8FcQfvM-9">
          <mxGeometry relative="1" as="geometry" />
        </mxCell>
        <mxCell id="LknEf1gBUkoIw8FcQfvM-15" value="异化" style="edgeStyle=orthogonalEdgeStyle;rounded=0;orthogonalLoop=1;jettySize=auto;html=1;" edge="1" parent="1" source="LknEf1gBUkoIw8FcQfvM-3" target="LknEf1gBUkoIw8FcQfvM-11">
          <mxGeometry relative="1" as="geometry" />
        </mxCell>
        <mxCell id="LknEf1gBUkoIw8FcQfvM-3" value="外在评判" style="rounded=0;whiteSpace=wrap;html=1;" vertex="1" parent="1">
          <mxGeometry x="360" y="760" width="80" height="40" as="geometry" />
        </mxCell>
        <mxCell id="LknEf1gBUkoIw8FcQfvM-8" style="edgeStyle=orthogonalEdgeStyle;rounded=0;orthogonalLoop=1;jettySize=auto;html=1;" edge="1" parent="1" source="LknEf1gBUkoIw8FcQfvM-4" target="LknEf1gBUkoIw8FcQfvM-7">
          <mxGeometry relative="1" as="geometry" />
        </mxCell>
        <mxCell id="LknEf1gBUkoIw8FcQfvM-14" value="" style="edgeStyle=orthogonalEdgeStyle;rounded=0;orthogonalLoop=1;jettySize=auto;html=1;" edge="1" parent="1" source="LknEf1gBUkoIw8FcQfvM-4" target="LknEf1gBUkoIw8FcQfvM-11">
          <mxGeometry relative="1" as="geometry" />
        </mxCell>
        <mxCell id="LknEf1gBUkoIw8FcQfvM-4" value="内在品德" style="rounded=0;whiteSpace=wrap;html=1;" vertex="1" parent="1">
          <mxGeometry x="360" y="440" width="80" height="40" as="geometry" />
        </mxCell>
        <mxCell id="LknEf1gBUkoIw8FcQfvM-18" style="edgeStyle=orthogonalEdgeStyle;rounded=0;orthogonalLoop=1;jettySize=auto;html=1;" edge="1" parent="1" source="LknEf1gBUkoIw8FcQfvM-7" target="LknEf1gBUkoIw8FcQfvM-16">
          <mxGeometry relative="1" as="geometry" />
        </mxCell>
        <mxCell id="LknEf1gBUkoIw8FcQfvM-33" value="决定" style="edgeStyle=orthogonalEdgeStyle;rounded=0;orthogonalLoop=1;jettySize=auto;html=1;entryX=0;entryY=0.5;entryDx=0;entryDy=0;" edge="1" parent="1" source="LknEf1gBUkoIw8FcQfvM-7" target="LknEf1gBUkoIw8FcQfvM-32">
          <mxGeometry relative="1" as="geometry" />
        </mxCell>
        <mxCell id="LknEf1gBUkoIw8FcQfvM-7" value="品德" style="rounded=0;whiteSpace=wrap;html=1;" vertex="1" parent="1">
          <mxGeometry x="520" y="440" width="80" height="40" as="geometry" />
        </mxCell>
        <mxCell id="LknEf1gBUkoIw8FcQfvM-19" value="实现" style="edgeStyle=orthogonalEdgeStyle;rounded=0;orthogonalLoop=1;jettySize=auto;html=1;" edge="1" parent="1" source="LknEf1gBUkoIw8FcQfvM-9" target="LknEf1gBUkoIw8FcQfvM-17">
          <mxGeometry relative="1" as="geometry" />
        </mxCell>
        <mxCell id="LknEf1gBUkoIw8FcQfvM-30" value="改变" style="edgeStyle=orthogonalEdgeStyle;rounded=0;orthogonalLoop=1;jettySize=auto;html=1;" edge="1" parent="1" source="LknEf1gBUkoIw8FcQfvM-9" target="LknEf1gBUkoIw8FcQfvM-29">
          <mxGeometry relative="1" as="geometry" />
        </mxCell>
        <mxCell id="LknEf1gBUkoIw8FcQfvM-9" value="技巧" style="rounded=0;whiteSpace=wrap;html=1;" vertex="1" parent="1">
          <mxGeometry x="520" y="760" width="80" height="40" as="geometry" />
        </mxCell>
        <mxCell id="LknEf1gBUkoIw8FcQfvM-23" value="" style="edgeStyle=orthogonalEdgeStyle;rounded=0;orthogonalLoop=1;jettySize=auto;html=1;" edge="1" parent="1" source="LknEf1gBUkoIw8FcQfvM-11" target="LknEf1gBUkoIw8FcQfvM-22">
          <mxGeometry relative="1" as="geometry" />
        </mxCell>
        <mxCell id="LknEf1gBUkoIw8FcQfvM-11" value="个人价值" style="rounded=0;whiteSpace=wrap;html=1;" vertex="1" parent="1">
          <mxGeometry x="360" y="600" width="80" height="40" as="geometry" />
        </mxCell>
        <mxCell id="LknEf1gBUkoIw8FcQfvM-21" style="edgeStyle=orthogonalEdgeStyle;rounded=0;orthogonalLoop=1;jettySize=auto;html=1;entryX=1;entryY=0.5;entryDx=0;entryDy=0;" edge="1" parent="1" source="LknEf1gBUkoIw8FcQfvM-16" target="LknEf1gBUkoIw8FcQfvM-11">
          <mxGeometry relative="1" as="geometry" />
        </mxCell>
        <mxCell id="LknEf1gBUkoIw8FcQfvM-16" value="真正自我" style="rounded=0;whiteSpace=wrap;html=1;" vertex="1" parent="1">
          <mxGeometry x="520" y="520" width="80" height="40" as="geometry" />
        </mxCell>
        <mxCell id="LknEf1gBUkoIw8FcQfvM-20" value="满足" style="edgeStyle=orthogonalEdgeStyle;rounded=0;orthogonalLoop=1;jettySize=auto;html=1;entryX=1;entryY=0.5;entryDx=0;entryDy=0;" edge="1" parent="1" source="LknEf1gBUkoIw8FcQfvM-17" target="LknEf1gBUkoIw8FcQfvM-11">
          <mxGeometry relative="1" as="geometry" />
        </mxCell>
        <mxCell id="LknEf1gBUkoIw8FcQfvM-17" value="包装自我" style="rounded=0;whiteSpace=wrap;html=1;" vertex="1" parent="1">
          <mxGeometry x="520" y="680" width="80" height="40" as="geometry" />
        </mxCell>
        <mxCell id="LknEf1gBUkoIw8FcQfvM-24" style="edgeStyle=orthogonalEdgeStyle;rounded=0;orthogonalLoop=1;jettySize=auto;html=1;" edge="1" parent="1" source="LknEf1gBUkoIw8FcQfvM-22" target="LknEf1gBUkoIw8FcQfvM-1">
          <mxGeometry relative="1" as="geometry" />
        </mxCell>
        <mxCell id="LknEf1gBUkoIw8FcQfvM-25" style="edgeStyle=orthogonalEdgeStyle;rounded=0;orthogonalLoop=1;jettySize=auto;html=1;" edge="1" parent="1" source="LknEf1gBUkoIw8FcQfvM-22" target="LknEf1gBUkoIw8FcQfvM-2">
          <mxGeometry relative="1" as="geometry" />
        </mxCell>
        <mxCell id="LknEf1gBUkoIw8FcQfvM-27" value="" style="edgeStyle=orthogonalEdgeStyle;rounded=0;orthogonalLoop=1;jettySize=auto;html=1;" edge="1" parent="1" source="LknEf1gBUkoIw8FcQfvM-22" target="LknEf1gBUkoIw8FcQfvM-26">
          <mxGeometry relative="1" as="geometry" />
        </mxCell>
        <mxCell id="LknEf1gBUkoIw8FcQfvM-22" value="思维方式" style="rounded=0;whiteSpace=wrap;html=1;" vertex="1" parent="1">
          <mxGeometry x="200" y="600" width="80" height="40" as="geometry" />
        </mxCell>
        <mxCell id="LknEf1gBUkoIw8FcQfvM-28" value="冲突矛盾" style="edgeStyle=orthogonalEdgeStyle;rounded=0;orthogonalLoop=1;jettySize=auto;html=1;entryX=0.5;entryY=1;entryDx=0;entryDy=0;" edge="1" parent="1" source="LknEf1gBUkoIw8FcQfvM-26" target="LknEf1gBUkoIw8FcQfvM-29">
          <mxGeometry relative="1" as="geometry">
            <Array as="points">
              <mxPoint x="80" y="840" />
              <mxPoint x="720" y="840" />
            </Array>
          </mxGeometry>
        </mxCell>
        <mxCell id="LknEf1gBUkoIw8FcQfvM-35" value="契合一致" style="edgeStyle=orthogonalEdgeStyle;rounded=0;orthogonalLoop=1;jettySize=auto;html=1;entryX=0.5;entryY=0;entryDx=0;entryDy=0;" edge="1" parent="1" source="LknEf1gBUkoIw8FcQfvM-26" target="LknEf1gBUkoIw8FcQfvM-32">
          <mxGeometry relative="1" as="geometry">
            <Array as="points">
              <mxPoint x="80" y="400" />
              <mxPoint x="720" y="400" />
            </Array>
          </mxGeometry>
        </mxCell>
        <mxCell id="LknEf1gBUkoIw8FcQfvM-44" style="edgeStyle=orthogonalEdgeStyle;rounded=0;orthogonalLoop=1;jettySize=auto;html=1;" edge="1" parent="1" source="LknEf1gBUkoIw8FcQfvM-26" target="LknEf1gBUkoIw8FcQfvM-22">
          <mxGeometry relative="1" as="geometry" />
        </mxCell>
        <mxCell id="LknEf1gBUkoIw8FcQfvM-26" value="价值观" style="rounded=0;whiteSpace=wrap;html=1;" vertex="1" parent="1">
          <mxGeometry x="40" y="600" width="80" height="40" as="geometry" />
        </mxCell>
        <mxCell id="LknEf1gBUkoIw8FcQfvM-31" style="edgeStyle=orthogonalEdgeStyle;rounded=0;orthogonalLoop=1;jettySize=auto;html=1;entryX=1;entryY=0.5;entryDx=0;entryDy=0;" edge="1" parent="1" source="LknEf1gBUkoIw8FcQfvM-29" target="LknEf1gBUkoIw8FcQfvM-17">
          <mxGeometry relative="1" as="geometry">
            <Array as="points">
              <mxPoint x="720" y="700" />
            </Array>
          </mxGeometry>
        </mxCell>
        <mxCell id="LknEf1gBUkoIw8FcQfvM-29" value="行为态度" style="rounded=0;whiteSpace=wrap;html=1;" vertex="1" parent="1">
          <mxGeometry x="680" y="760" width="80" height="40" as="geometry" />
        </mxCell>
        <mxCell id="LknEf1gBUkoIw8FcQfvM-34" style="edgeStyle=orthogonalEdgeStyle;rounded=0;orthogonalLoop=1;jettySize=auto;html=1;entryX=1;entryY=0.5;entryDx=0;entryDy=0;" edge="1" parent="1" source="LknEf1gBUkoIw8FcQfvM-32" target="LknEf1gBUkoIw8FcQfvM-16">
          <mxGeometry relative="1" as="geometry">
            <Array as="points">
              <mxPoint x="720" y="540" />
            </Array>
          </mxGeometry>
        </mxCell>
        <mxCell id="LknEf1gBUkoIw8FcQfvM-32" value="思维方式" style="rounded=0;whiteSpace=wrap;html=1;" vertex="1" parent="1">
          <mxGeometry x="680" y="440" width="80" height="40" as="geometry" />
        </mxCell>
        <mxCell id="LknEf1gBUkoIw8FcQfvM-37" style="edgeStyle=orthogonalEdgeStyle;rounded=0;orthogonalLoop=1;jettySize=auto;html=1;" edge="1" parent="1" source="LknEf1gBUkoIw8FcQfvM-36" target="LknEf1gBUkoIw8FcQfvM-26">
          <mxGeometry relative="1" as="geometry" />
        </mxCell>
        <mxCell id="LknEf1gBUkoIw8FcQfvM-49" value="" style="edgeStyle=orthogonalEdgeStyle;rounded=0;orthogonalLoop=1;jettySize=auto;html=1;" edge="1" parent="1" source="LknEf1gBUkoIw8FcQfvM-36" target="LknEf1gBUkoIw8FcQfvM-48">
          <mxGeometry relative="1" as="geometry" />
        </mxCell>
        <mxCell id="LknEf1gBUkoIw8FcQfvM-36" value="原则" style="rounded=0;whiteSpace=wrap;html=1;" vertex="1" parent="1">
          <mxGeometry x="-120" y="600" width="80" height="40" as="geometry" />
        </mxCell>
        <mxCell id="LknEf1gBUkoIw8FcQfvM-47" value="" style="edgeStyle=orthogonalEdgeStyle;rounded=0;orthogonalLoop=1;jettySize=auto;html=1;" edge="1" parent="1" source="LknEf1gBUkoIw8FcQfvM-38" target="LknEf1gBUkoIw8FcQfvM-36">
          <mxGeometry relative="1" as="geometry" />
        </mxCell>
        <mxCell id="LknEf1gBUkoIw8FcQfvM-38" value="自然法则" style="rounded=0;whiteSpace=wrap;html=1;" vertex="1" parent="1">
          <mxGeometry x="-120" y="520" width="80" height="40" as="geometry" />
        </mxCell>
        <mxCell id="LknEf1gBUkoIw8FcQfvM-46" value="" style="edgeStyle=orthogonalEdgeStyle;rounded=0;orthogonalLoop=1;jettySize=auto;html=1;" edge="1" parent="1" source="LknEf1gBUkoIw8FcQfvM-39" target="LknEf1gBUkoIw8FcQfvM-36">
          <mxGeometry relative="1" as="geometry" />
        </mxCell>
        <mxCell id="LknEf1gBUkoIw8FcQfvM-39" value="客观事实" style="rounded=0;whiteSpace=wrap;html=1;" vertex="1" parent="1">
          <mxGeometry x="-120" y="680" width="80" height="40" as="geometry" />
        </mxCell>
        <mxCell id="LknEf1gBUkoIw8FcQfvM-51" value="先" style="edgeStyle=orthogonalEdgeStyle;rounded=0;orthogonalLoop=1;jettySize=auto;html=1;" edge="1" parent="1" source="LknEf1gBUkoIw8FcQfvM-48" target="LknEf1gBUkoIw8FcQfvM-50">
          <mxGeometry relative="1" as="geometry" />
        </mxCell>
        <mxCell id="LknEf1gBUkoIw8FcQfvM-55" style="edgeStyle=orthogonalEdgeStyle;rounded=0;orthogonalLoop=1;jettySize=auto;html=1;" edge="1" parent="1" source="LknEf1gBUkoIw8FcQfvM-48" target="LknEf1gBUkoIw8FcQfvM-54">
          <mxGeometry relative="1" as="geometry" />
        </mxCell>
        <mxCell id="LknEf1gBUkoIw8FcQfvM-58" value="后" style="edgeStyle=orthogonalEdgeStyle;rounded=0;orthogonalLoop=1;jettySize=auto;html=1;" edge="1" parent="1" source="LknEf1gBUkoIw8FcQfvM-48" target="LknEf1gBUkoIw8FcQfvM-57">
          <mxGeometry relative="1" as="geometry" />
        </mxCell>
        <mxCell id="LknEf1gBUkoIw8FcQfvM-48" value="由内而外" style="rounded=0;whiteSpace=wrap;html=1;" vertex="1" parent="1">
          <mxGeometry x="-280" y="600" width="80" height="40" as="geometry" />
        </mxCell>
        <mxCell id="LknEf1gBUkoIw8FcQfvM-50" value="个人领域成功" style="rounded=0;whiteSpace=wrap;html=1;" vertex="1" parent="1">
          <mxGeometry x="-280" y="520" width="80" height="40" as="geometry" />
        </mxCell>
        <mxCell id="LknEf1gBUkoIw8FcQfvM-52" value="更新" style="rounded=0;whiteSpace=wrap;html=1;" vertex="1" parent="1">
          <mxGeometry x="-440" y="680" width="80" height="40" as="geometry" />
        </mxCell>
        <mxCell id="LknEf1gBUkoIw8FcQfvM-56" value="持续" style="edgeStyle=orthogonalEdgeStyle;rounded=0;orthogonalLoop=1;jettySize=auto;html=1;" edge="1" parent="1" source="LknEf1gBUkoIw8FcQfvM-54" target="LknEf1gBUkoIw8FcQfvM-52">
          <mxGeometry relative="1" as="geometry" />
        </mxCell>
        <mxCell id="LknEf1gBUkoIw8FcQfvM-60" value="保持" style="edgeStyle=orthogonalEdgeStyle;rounded=0;orthogonalLoop=1;jettySize=auto;html=1;" edge="1" parent="1" source="LknEf1gBUkoIw8FcQfvM-54" target="LknEf1gBUkoIw8FcQfvM-59">
          <mxGeometry relative="1" as="geometry" />
        </mxCell>
        <mxCell id="LknEf1gBUkoIw8FcQfvM-54" value="改变自己" style="rounded=0;whiteSpace=wrap;html=1;" vertex="1" parent="1">
          <mxGeometry x="-440" y="600" width="80" height="40" as="geometry" />
        </mxCell>
        <mxCell id="LknEf1gBUkoIw8FcQfvM-57" value="公众领域成功" style="rounded=0;whiteSpace=wrap;html=1;" vertex="1" parent="1">
          <mxGeometry x="-280" y="680" width="80" height="40" as="geometry" />
        </mxCell>
        <mxCell id="LknEf1gBUkoIw8FcQfvM-59" value="循序渐进" style="rounded=0;whiteSpace=wrap;html=1;" vertex="1" parent="1">
          <mxGeometry x="-440" y="520" width="80" height="40" as="geometry" />
        </mxCell>
      </root>
    </mxGraphModel>
  </diagram>
</mxfile>
